<?xml version="1.0" encoding="UTF-8" standalone="no"?>
<svg width="97px" height="95px" viewBox="0 0 97 95" version="1.1" xmlns="http://www.w3.org/2000/svg" xmlns:xlink="http://www.w3.org/1999/xlink">
    <title>TIX Logo</title>
    <defs></defs>
    <g stroke="none" stroke-width="1" fill="none" fill-rule="evenodd">
        <g transform="translate(-1.000000, -6.000000)" fill="#AF0E0E">
            <g id="Tick" transform="translate(40.384568, 32.893150) rotate(-35.000000) translate(-40.384568, -32.893150) translate(18.804568, 9.215631)">
                <path d="M0.227908933,18.8171328 C0.227908933,18.8171328 7.42837119,22.618765 11.3038933,23.8561164 C12.7690492,24.3239018 17.1166996,24.4631533 17.1166996,24.4631533 C17.1166996,24.4631533 12.6304097,25.3165522 9.19556793,24.4631534 C7.22980812,23.9747532 1.0946655,20.9827633 1.0946655,20.9827633 L0.227908933,18.8171328 Z" id="Rectangle-3-Copy" transform="translate(8.672304, 21.829787) scale(-1, 1) translate(-8.672304, -21.829787) "></path>
                <path d="M24.0079081,16.4684054 C26.9386919,18.1234963 29.0447798,22.691641 29.0447798,28.0678522 C29.0447798,34.8403289 25.702684,40.330506 21.5799999,40.330506 C17.4573159,40.330506 14.1152201,34.8403289 14.1152201,28.0678522 C14.1152201,22.565466 16.3213241,17.9095206 19.3597867,16.3567155 C18.9650064,15.6406288 18.7298113,14.7398791 18.7298113,13.7614227 C18.7298113,11.4286807 20.0666496,9.53761967 21.7157232,9.53761967 C23.3647968,9.53761967 24.7016351,11.4286807 24.7016351,13.7614227 C24.7016351,14.7914582 24.4409899,15.7353785 24.0079081,16.4684054 Z" id="Oval-1"></path>
                <path d="M24.5257184,16.8044662 C24.5257184,16.8044662 22.0035371,16.4049482 26.0332289,15.1221445 C30.0629206,13.8393408 35.2986987,0.244195523 35.2986987,0.244195523 C35.2986987,0.244195523 31.6739857,12.9285661 29.5224854,15.1221448 C27.2863187,17.4020457 25.5522212,17.9586784 25.5522212,17.9586784 L24.5257184,16.8044662 Z" id="Rectangle-1"></path>
                <path d="M7.59986499,38.573548 C10.2964227,33.2667413 13.354288,26.5294734 14.9504289,27.5228453 L15.5795555,29.6262932 C15.5795555,29.6262932 14.4494963,29.6558303 13.0150658,32.6149195 C11.6548818,35.4208455 8.6289972,39.7552254 7.59986499,41.0823985 C5.31917999,44.0235792 1.76505305,45.6167734 1.76505305,45.6167734 C1.76505305,45.6167734 4.90330729,43.8803546 7.59986499,38.573548 Z" id="Rectangle-5"></path>
                <path d="M33.5403387,38.573548 C36.2368964,33.2667413 39.2947617,26.5294734 40.8909026,27.5228453 L41.5200291,29.6262932 C41.5200291,29.6262932 40.38997,29.6558303 38.9555395,32.6149195 C37.5953555,35.4208455 34.5694709,39.7552254 33.5403387,41.0823985 C31.2596537,44.0235792 27.7055267,45.6167734 27.7055267,45.6167734 C27.7055267,45.6167734 30.843781,43.8803546 33.5403387,38.573548 Z" id="Rectangle-5-Copy" transform="translate(34.612778, 36.520652) scale(-1, 1) translate(-34.612778, -36.520652) "></path>
                <path d="M26.1683826,18.8171328 C26.1683826,18.8171328 33.3688449,22.618765 37.244367,23.8561164 C38.7095229,24.3239018 43.0571733,24.4631533 43.0571733,24.4631533 C43.0571733,24.4631533 38.5708834,25.3165522 35.1360416,24.4631534 C33.1702818,23.9747532 27.0351392,20.9827633 27.0351392,20.9827633 L26.1683826,18.8171328 Z" id="Rectangle-3-Copy-2"></path>
                <path d="M9.118453,16.8044662 C9.118453,16.8044662 6.59627173,16.4049482 10.6259635,15.1221445 C14.6556553,13.8393408 19.8914333,0.244195523 19.8914333,0.244195523 C19.8914333,0.244195523 16.2667204,12.9285661 14.1152201,15.1221448 C11.8790534,17.4020457 10.1449558,17.9586784 10.1449558,17.9586784 L9.118453,16.8044662 Z" id="Rectangle-1-Copy" transform="translate(14.115220, 9.101437) scale(-1, 1) translate(-14.115220, -9.101437) "></path>
            </g>
            <path d="M1.1263998,51.386793 L1.1263998,59.540393 L13.1656998,59.540393 L13.1656998,100.372093 L22.5932998,100.372093 L22.5932998,59.540393 L34.6962998,59.540393 L34.6962998,51.386793 L1.1263998,51.386793 Z M52.4237999,100.372093 L52.4237999,51.386793 L42.9961999,51.386793 L42.9961999,100.372093 L52.4237999,100.372093 Z M97.4786001,51.386793 L87.0955001,51.386793 L82.9550001,60.941793 C81.7447001,63.744593 80.9166001,65.974093 79.7700001,69.031693 L79.6426001,69.031693 C78.4960001,66.292593 77.5405001,63.808293 76.2665001,61.005493 L71.8712001,51.386793 L61.3607001,51.386793 L73.5911001,75.465393 L60.9148001,100.372093 L71.2342001,100.372093 L75.2473001,90.944493 C76.7124001,87.568393 77.8590001,84.892993 78.8782001,81.962793 L79.0693001,81.962793 C80.2796001,84.892993 81.4262001,87.504693 83.0824001,90.880793 L87.4777001,100.372093 L98.0519001,100.372093 L84.9297001,75.401693 L97.4786001,51.386793 Z" id="TIX"></path>
        </g>
    </g>
</svg>